<mxfile host="app.diagrams.net" modified="2022-09-19T14:22:05.490Z" agent="5.0 (Windows NT 6.1; Win64; x64) AppleWebKit/537.36 (KHTML, like Gecko) Chrome/105.0.0.0 Safari/537.36" etag="Wi68x8T7s49M8Fm8VEM0" version="20.3.3" type="github">
  <diagram name="Page-1" id="97916047-d0de-89f5-080d-49f4d83e522f">
    <mxGraphModel dx="782" dy="733" grid="1" gridSize="10" guides="1" tooltips="1" connect="1" arrows="1" fold="1" page="1" pageScale="1.5" pageWidth="1169" pageHeight="827" background="none" math="0" shadow="0">
      <root>
        <mxCell id="0" />
        <mxCell id="1" parent="0" />
        <mxCell id="2" value="Одежда &#xa;больших&#xa;размеров" style="rounded=1;fillColor=#10739E;strokeColor=none;shadow=1;gradientColor=none;fontStyle=1;fontColor=#FFFFFF;fontSize=14;" parent="1" vertex="1">
          <mxGeometry x="672" y="205.5" width="200" height="60" as="geometry" />
        </mxCell>
        <mxCell id="3" value="Сайт" style="rounded=1;fillColor=#10739E;strokeColor=none;shadow=1;gradientColor=none;fontStyle=1;fontColor=#FFFFFF;fontSize=14;" parent="1" vertex="1">
          <mxGeometry x="662" y="345.5" width="220" height="60" as="geometry" />
        </mxCell>
        <mxCell id="4" value="РСЯ" style="rounded=1;fillColor=#10739E;strokeColor=none;shadow=1;gradientColor=none;fontStyle=1;fontColor=#FFFFFF;fontSize=14;" parent="1" vertex="1">
          <mxGeometry x="302" y="455.5" width="200" height="60" as="geometry" />
        </mxCell>
        <mxCell id="5" value="Яндекс Директ" style="rounded=1;fillColor=#10739E;strokeColor=none;shadow=1;gradientColor=none;fontStyle=1;fontColor=#FFFFFF;fontSize=14;" parent="1" vertex="1">
          <mxGeometry x="542" y="455.5" width="200" height="60" as="geometry" />
        </mxCell>
        <mxCell id="6" value="Sape" style="rounded=1;fillColor=#10739E;strokeColor=none;shadow=1;gradientColor=none;fontStyle=1;fontColor=#FFFFFF;fontSize=14;" parent="1" vertex="1">
          <mxGeometry x="872" y="455.5" width="200" height="60" as="geometry" />
        </mxCell>
        <mxCell id="7" value="Соцсети&#xa;Наш аккаунт" style="rounded=1;fillColor=#10739E;strokeColor=none;shadow=1;gradientColor=none;fontStyle=1;fontColor=#FFFFFF;fontSize=14;" parent="1" vertex="1">
          <mxGeometry x="1272" y="455.5" width="200" height="60" as="geometry" />
        </mxCell>
        <mxCell id="8" value="Крауд маркетинг" style="rounded=1;fillColor=#10739E;strokeColor=none;shadow=1;gradientColor=none;fontStyle=1;fontColor=#FFFFFF;fontSize=14;" parent="1" vertex="1">
          <mxGeometry x="282" y="625.5" width="200" height="60" as="geometry" />
        </mxCell>
        <mxCell id="9" value="Форумы" style="rounded=1;fillColor=#10739E;strokeColor=none;shadow=1;gradientColor=none;fontStyle=1;fontColor=#FFFFFF;fontSize=14;" parent="1" vertex="1">
          <mxGeometry x="282" y="705.5" width="200" height="60" as="geometry" />
        </mxCell>
        <mxCell id="KuUN1I4ROq2A7fiIH4e0-55" style="edgeStyle=orthogonalEdgeStyle;rounded=0;orthogonalLoop=1;jettySize=auto;html=1;entryX=0.5;entryY=1;entryDx=0;entryDy=0;shape=flexArrow;strokeColor=#000000;" edge="1" parent="1" source="10" target="7">
          <mxGeometry relative="1" as="geometry">
            <Array as="points">
              <mxPoint x="390" y="1120" />
              <mxPoint x="1372" y="1120" />
            </Array>
          </mxGeometry>
        </mxCell>
        <mxCell id="KuUN1I4ROq2A7fiIH4e0-57" style="edgeStyle=orthogonalEdgeStyle;rounded=0;orthogonalLoop=1;jettySize=auto;html=1;" edge="1" parent="1" source="10">
          <mxGeometry relative="1" as="geometry">
            <mxPoint x="382" y="870" as="targetPoint" />
          </mxGeometry>
        </mxCell>
        <mxCell id="10" value="Соцстеи" style="rounded=1;fillColor=#10739E;strokeColor=none;shadow=1;gradientColor=none;fontStyle=1;fontColor=#FFFFFF;fontSize=14;" parent="1" vertex="1">
          <mxGeometry x="282" y="795.5" width="200" height="60" as="geometry" />
        </mxCell>
        <mxCell id="11" value="Сообщества" style="rounded=1;fillColor=#10739E;strokeColor=none;shadow=1;gradientColor=none;fontStyle=1;fontColor=#FFFFFF;fontSize=14;" parent="1" vertex="1">
          <mxGeometry x="502" y="880" width="200" height="60" as="geometry" />
        </mxCell>
        <mxCell id="12" value="Тематические сайты" style="rounded=1;fillColor=#10739E;strokeColor=none;shadow=1;gradientColor=none;fontStyle=1;fontColor=#FFFFFF;fontSize=14;" parent="1" vertex="1">
          <mxGeometry x="580" y="990" width="200" height="60" as="geometry" />
        </mxCell>
        <mxCell id="13" value="Блогеры" style="rounded=1;fillColor=#10739E;strokeColor=none;shadow=1;gradientColor=none;fontStyle=1;fontColor=#FFFFFF;fontSize=14;" parent="1" vertex="1">
          <mxGeometry x="552" y="615.5" width="200" height="60" as="geometry" />
        </mxCell>
        <mxCell id="14" value="Сообщества" style="rounded=1;fillColor=#10739E;strokeColor=none;shadow=1;gradientColor=none;fontStyle=1;fontColor=#FFFFFF;fontSize=14;" parent="1" vertex="1">
          <mxGeometry x="552" y="705.5" width="200" height="60" as="geometry" />
        </mxCell>
        <mxCell id="18" value="Накрутка поведенческих&#xa;факторов" style="rounded=1;fillColor=#10739E;strokeColor=none;shadow=1;gradientColor=none;fontStyle=1;fontColor=#FFFFFF;fontSize=14;" parent="1" vertex="1">
          <mxGeometry x="842" y="615.5" width="200" height="60" as="geometry" />
        </mxCell>
        <mxCell id="19" value="Сервисы" style="rounded=1;fillColor=#10739E;strokeColor=none;shadow=1;gradientColor=none;fontStyle=1;fontColor=#FFFFFF;fontSize=14;" parent="1" vertex="1">
          <mxGeometry x="842" y="705.5" width="200" height="60" as="geometry" />
        </mxCell>
        <mxCell id="23" value="Написание статей" style="rounded=1;fillColor=#10739E;strokeColor=none;shadow=1;gradientColor=none;fontStyle=1;fontColor=#FFFFFF;fontSize=14;" parent="1" vertex="1">
          <mxGeometry x="1092" y="615.5" width="200" height="60" as="geometry" />
        </mxCell>
        <mxCell id="24" value="Яндекс дзен" style="rounded=1;fillColor=#10739E;strokeColor=none;shadow=1;gradientColor=none;fontStyle=1;fontColor=#FFFFFF;fontSize=14;" parent="1" vertex="1">
          <mxGeometry x="1072" y="705.5" width="200" height="60" as="geometry" />
        </mxCell>
        <mxCell id="29" value="" style="edgeStyle=elbowEdgeStyle;elbow=vertical;strokeWidth=4;endArrow=block;endFill=1;fontStyle=1;strokeColor=#23445D;" parent="1" source="2" target="3" edge="1">
          <mxGeometry x="22" y="165.5" width="100" height="100" as="geometry">
            <mxPoint x="22" y="265.5" as="sourcePoint" />
            <mxPoint x="122" y="165.5" as="targetPoint" />
          </mxGeometry>
        </mxCell>
        <mxCell id="30" value="" style="edgeStyle=elbowEdgeStyle;elbow=vertical;strokeWidth=4;endArrow=block;endFill=1;fontStyle=1;strokeColor=#23445D;" parent="1" source="3" target="5" edge="1">
          <mxGeometry x="22" y="165.5" width="100" height="100" as="geometry">
            <mxPoint x="22" y="265.5" as="sourcePoint" />
            <mxPoint x="122" y="165.5" as="targetPoint" />
          </mxGeometry>
        </mxCell>
        <mxCell id="31" value="" style="edgeStyle=elbowEdgeStyle;elbow=vertical;strokeWidth=4;endArrow=block;endFill=1;fontStyle=1;strokeColor=#23445D;" parent="1" source="3" target="4" edge="1">
          <mxGeometry x="22" y="165.5" width="100" height="100" as="geometry">
            <mxPoint x="22" y="265.5" as="sourcePoint" />
            <mxPoint x="122" y="165.5" as="targetPoint" />
            <Array as="points">
              <mxPoint x="660" y="440" />
            </Array>
          </mxGeometry>
        </mxCell>
        <mxCell id="32" value="" style="edgeStyle=elbowEdgeStyle;elbow=vertical;strokeWidth=4;endArrow=block;endFill=1;fontStyle=1;strokeColor=#23445D;" parent="1" source="3" target="6" edge="1">
          <mxGeometry x="22" y="165.5" width="100" height="100" as="geometry">
            <mxPoint x="22" y="265.5" as="sourcePoint" />
            <mxPoint x="122" y="165.5" as="targetPoint" />
          </mxGeometry>
        </mxCell>
        <mxCell id="33" value="" style="edgeStyle=elbowEdgeStyle;elbow=vertical;strokeWidth=4;endArrow=block;endFill=1;fontStyle=1;dashed=1;strokeColor=#23445D;" parent="1" source="2" target="7" edge="1">
          <mxGeometry x="22" y="165.5" width="100" height="100" as="geometry">
            <mxPoint x="22" y="265.5" as="sourcePoint" />
            <mxPoint x="122" y="165.5" as="targetPoint" />
            <Array as="points">
              <mxPoint x="1062" y="295.5" />
            </Array>
          </mxGeometry>
        </mxCell>
        <mxCell id="34" value="" style="edgeStyle=elbowEdgeStyle;elbow=vertical;strokeWidth=4;endArrow=block;endFill=1;fontStyle=1;strokeColor=#23445D;" parent="1" source="3" target="8" edge="1">
          <mxGeometry x="22" y="165.5" width="100" height="100" as="geometry">
            <mxPoint x="22" y="265.5" as="sourcePoint" />
            <mxPoint x="122" y="165.5" as="targetPoint" />
            <Array as="points">
              <mxPoint x="552" y="555.5" />
            </Array>
          </mxGeometry>
        </mxCell>
        <mxCell id="37" value="" style="edgeStyle=elbowEdgeStyle;elbow=vertical;strokeWidth=4;endArrow=block;endFill=1;fontStyle=1;strokeColor=#23445D;" parent="1" source="3" target="23" edge="1">
          <mxGeometry x="22" y="165.5" width="100" height="100" as="geometry">
            <mxPoint x="22" y="265.5" as="sourcePoint" />
            <mxPoint x="122" y="165.5" as="targetPoint" />
            <Array as="points">
              <mxPoint x="972" y="555.5" />
            </Array>
          </mxGeometry>
        </mxCell>
        <mxCell id="38" value="" style="edgeStyle=elbowEdgeStyle;elbow=vertical;strokeWidth=4;endArrow=block;endFill=1;fontStyle=1;strokeColor=#23445D;" parent="1" source="8" target="9" edge="1">
          <mxGeometry x="62" y="165.5" width="100" height="100" as="geometry">
            <mxPoint x="62" y="265.5" as="sourcePoint" />
            <mxPoint x="162" y="165.5" as="targetPoint" />
          </mxGeometry>
        </mxCell>
        <mxCell id="39" value="" style="edgeStyle=elbowEdgeStyle;elbow=vertical;strokeWidth=4;endArrow=block;endFill=1;fontStyle=1;strokeColor=#23445D;" parent="1" source="9" target="10" edge="1">
          <mxGeometry x="62" y="175.5" width="100" height="100" as="geometry">
            <mxPoint x="62" y="275.5" as="sourcePoint" />
            <mxPoint x="162" y="175.5" as="targetPoint" />
          </mxGeometry>
        </mxCell>
        <mxCell id="40" value="" style="edgeStyle=elbowEdgeStyle;elbow=vertical;strokeWidth=4;endArrow=block;endFill=1;fontStyle=1;strokeColor=#23445D;" parent="1" source="10" target="11" edge="1">
          <mxGeometry x="62" y="185.5" width="100" height="100" as="geometry">
            <mxPoint x="62" y="285.5" as="sourcePoint" />
            <mxPoint x="162" y="185.5" as="targetPoint" />
          </mxGeometry>
        </mxCell>
        <mxCell id="41" value="" style="edgeStyle=elbowEdgeStyle;elbow=vertical;strokeWidth=4;endArrow=block;endFill=1;fontStyle=1;strokeColor=#23445D;" parent="1" source="11" target="12" edge="1">
          <mxGeometry x="62" y="195.5" width="100" height="100" as="geometry">
            <mxPoint x="62" y="295.5" as="sourcePoint" />
            <mxPoint x="162" y="195.5" as="targetPoint" />
          </mxGeometry>
        </mxCell>
        <mxCell id="42" value="" style="edgeStyle=elbowEdgeStyle;elbow=vertical;strokeWidth=4;endArrow=block;endFill=1;fontStyle=1;strokeColor=#23445D;" parent="1" source="13" target="14" edge="1">
          <mxGeometry x="62" y="165.5" width="100" height="100" as="geometry">
            <mxPoint x="62" y="265.5" as="sourcePoint" />
            <mxPoint x="162" y="165.5" as="targetPoint" />
          </mxGeometry>
        </mxCell>
        <mxCell id="46" value="" style="edgeStyle=elbowEdgeStyle;elbow=vertical;strokeWidth=4;endArrow=block;endFill=1;fontStyle=1;strokeColor=#23445D;" parent="1" source="18" target="19" edge="1">
          <mxGeometry x="72" y="165.5" width="100" height="100" as="geometry">
            <mxPoint x="72" y="265.5" as="sourcePoint" />
            <mxPoint x="172" y="165.5" as="targetPoint" />
          </mxGeometry>
        </mxCell>
        <mxCell id="50" value="" style="edgeStyle=elbowEdgeStyle;elbow=vertical;strokeWidth=4;endArrow=block;endFill=1;fontStyle=1;strokeColor=#23445D;" parent="1" source="23" target="24" edge="1">
          <mxGeometry x="72" y="165.5" width="100" height="100" as="geometry">
            <mxPoint x="72" y="265.5" as="sourcePoint" />
            <mxPoint x="172" y="165.5" as="targetPoint" />
          </mxGeometry>
        </mxCell>
        <mxCell id="52" value="" style="edgeStyle=elbowEdgeStyle;elbow=vertical;strokeWidth=4;endArrow=block;endFill=1;fontStyle=1;strokeColor=#23445D;" parent="1" edge="1">
          <mxGeometry x="72" y="-10" width="100" height="100" as="geometry">
            <mxPoint x="1192" y="660" as="sourcePoint" />
            <mxPoint x="1330" y="830" as="targetPoint" />
            <Array as="points">
              <mxPoint x="1330" y="690" />
            </Array>
          </mxGeometry>
        </mxCell>
        <mxCell id="53" value="" style="edgeStyle=elbowEdgeStyle;elbow=vertical;strokeWidth=4;endArrow=block;endFill=1;fontStyle=1;strokeColor=#23445D;" parent="1" target="KuUN1I4ROq2A7fiIH4e0-59" edge="1">
          <mxGeometry x="200" y="10" width="100" height="100" as="geometry">
            <mxPoint x="1330" y="760" as="sourcePoint" />
            <mxPoint x="1320" y="790" as="targetPoint" />
            <Array as="points">
              <mxPoint x="1330" y="770" />
              <mxPoint x="1290" y="770" />
            </Array>
          </mxGeometry>
        </mxCell>
        <mxCell id="54" value="" style="edgeStyle=elbowEdgeStyle;elbow=vertical;strokeWidth=4;endArrow=block;endFill=1;fontStyle=1;strokeColor=#23445D;" parent="1" source="3" target="13" edge="1">
          <mxGeometry x="22" y="165.5" width="100" height="100" as="geometry">
            <mxPoint x="22" y="265.5" as="sourcePoint" />
            <mxPoint x="122" y="165.5" as="targetPoint" />
            <Array as="points">
              <mxPoint x="652" y="555.5" />
            </Array>
          </mxGeometry>
        </mxCell>
        <mxCell id="55" value="" style="edgeStyle=elbowEdgeStyle;elbow=vertical;strokeWidth=4;endArrow=block;endFill=1;fontStyle=1;strokeColor=#23445D;" parent="1" source="3" target="18" edge="1">
          <mxGeometry x="22" y="165.5" width="100" height="100" as="geometry">
            <mxPoint x="22" y="265.5" as="sourcePoint" />
            <mxPoint x="122" y="165.5" as="targetPoint" />
            <Array as="points">
              <mxPoint x="942" y="555.5" />
            </Array>
          </mxGeometry>
        </mxCell>
        <mxCell id="KuUN1I4ROq2A7fiIH4e0-58" value="Каталог статей" style="rounded=1;fillColor=#10739E;strokeColor=none;shadow=1;gradientColor=none;fontStyle=1;fontColor=#FFFFFF;fontSize=14;" vertex="1" parent="1">
          <mxGeometry x="1150" y="830" width="200" height="60" as="geometry" />
        </mxCell>
        <mxCell id="KuUN1I4ROq2A7fiIH4e0-59" value="Ревью" style="rounded=1;fillColor=#10739E;strokeColor=none;shadow=1;gradientColor=none;fontStyle=1;fontColor=#FFFFFF;fontSize=14;" vertex="1" parent="1">
          <mxGeometry x="930" y="795.5" width="200" height="60" as="geometry" />
        </mxCell>
        <mxCell id="KuUN1I4ROq2A7fiIH4e0-60" value="" style="edgeStyle=elbowEdgeStyle;elbow=vertical;strokeWidth=4;endArrow=block;endFill=1;fontStyle=1;dashed=1;strokeColor=#23445D;entryX=0.673;entryY=1.075;entryDx=0;entryDy=0;entryPerimeter=0;" edge="1" parent="1" target="3">
          <mxGeometry x="270" y="760" width="100" height="100" as="geometry">
            <mxPoint x="1020" y="860" as="sourcePoint" />
            <mxPoint x="1620" y="1050" as="targetPoint" />
            <Array as="points">
              <mxPoint x="1310" y="890" />
            </Array>
          </mxGeometry>
        </mxCell>
        <mxCell id="KuUN1I4ROq2A7fiIH4e0-61" value="" style="edgeStyle=elbowEdgeStyle;elbow=vertical;strokeWidth=4;endArrow=block;endFill=1;fontStyle=1;dashed=1;strokeColor=#23445D;entryX=0.673;entryY=1.075;entryDx=0;entryDy=0;entryPerimeter=0;exitX=0;exitY=0.75;exitDx=0;exitDy=0;" edge="1" parent="1" source="KuUN1I4ROq2A7fiIH4e0-58">
          <mxGeometry x="239.94" y="755.5" width="100" height="100" as="geometry">
            <mxPoint x="1040" y="920" as="sourcePoint" />
            <mxPoint x="780" y="405.5" as="targetPoint" />
            <Array as="points">
              <mxPoint x="970" y="930" />
            </Array>
          </mxGeometry>
        </mxCell>
        <mxCell id="KuUN1I4ROq2A7fiIH4e0-62" value="" style="edgeStyle=elbowEdgeStyle;elbow=vertical;strokeWidth=4;endArrow=block;endFill=1;fontStyle=1;dashed=1;strokeColor=#23445D;entryX=1;entryY=0.5;entryDx=0;entryDy=0;" edge="1" parent="1" target="2">
          <mxGeometry x="342" y="605.5" width="100" height="100" as="geometry">
            <mxPoint x="1080" y="700" as="sourcePoint" />
            <mxPoint x="882.06" y="255.5" as="targetPoint" />
            <Array as="points">
              <mxPoint x="900" y="250" />
              <mxPoint x="1020" y="340" />
              <mxPoint x="1100" y="590" />
              <mxPoint x="910" y="330" />
              <mxPoint x="950" y="350" />
              <mxPoint x="1080" y="570" />
              <mxPoint x="910" y="330" />
              <mxPoint x="910" y="400" />
              <mxPoint x="990" y="420" />
            </Array>
          </mxGeometry>
        </mxCell>
      </root>
    </mxGraphModel>
  </diagram>
</mxfile>
